<svg width="630" height="100" viewBox="0 0 630 100" fill="none" xmlns="http://www.w3.org/2000/svg">
<g clip-path="url(#clip0_55_20639)">
<path fill-rule="evenodd" clip-rule="evenodd" d="M0 44.7807V89.4415L88.9929 89.5318C89.8125 86.353 89.4805 50.0506 89.1615 44.6564C83.532 42.1419 46.5894 22.5863 44.8042 22.5264C43.3942 22.4792 4.60868 42.6737 0 44.7807V44.7807Z" fill="#0077B9"/>
<path fill-rule="evenodd" clip-rule="evenodd" d="M300.341 25.3028C300.341 21.6089 299.729 15.0429 303.896 14.9094C308.353 14.7673 307.562 21.2879 307.56 24.892L307.561 63.4724C307.561 67.4185 308.521 75.8807 304.284 76.2362C301.162 76.4988 300.83 74.5303 300.571 71.7531C299.867 64.2209 300.341 34.4985 300.341 25.3028ZM309.404 100H330.388L330.515 89.374C323.005 88.4569 315.735 91.3909 316.617 84.814C321.408 82.7166 324.545 82.3888 327.301 78.6269C332.265 71.8533 330.468 41.6679 330.468 32.6906C330.468 21.6205 329.897 12.4552 323.537 6.92655C311.507 -3.52848 285.344 -3.03902 279.171 14.9959C276.705 22.2029 277.465 37.6794 277.465 46.2344C277.465 63.8672 275.169 77.3186 287.419 85.6653C291.379 88.3643 294.698 88.463 300.08 89.3719C300.168 94.3251 300.448 97.8422 305.223 99.0744L309.404 100ZM418.49 49.8753C426.019 50.1701 425.981 51.5023 425.982 58.9576V65.1143C425.982 72.2438 425.813 73.8449 418.496 74.243L418.49 49.8753ZM418.49 16.8868C425.942 17.1065 426.055 19.1354 425.967 26.5456C425.875 34.4125 426.423 36.0856 418.491 36.2069L418.49 16.8868ZM395.57 89.2397C405.087 89.2438 414.548 89.3153 423.969 89.2126C446.042 88.9708 450.443 86.5498 448.787 57.7736C448.24 48.2547 444.421 44.1705 436.085 42.3337C439.634 39.287 446.895 42.117 447.205 27.3553C447.628 7.19196 439.558 2.41686 421.519 1.94643C412.945 1.72314 404.214 1.89619 395.621 1.88553L395.57 89.2397ZM513.632 89.1699L532.753 89.2298L532.828 50.7959L544.664 89.0487C547.165 89.7335 561.02 89.2976 564.657 89.2088L564.782 1.92156L545.697 1.88933L545.616 40.6801C545.248 38.9082 533.051 2.63482 532.531 1.93501L513.691 1.89492L513.632 89.1699ZM239.473 25.3028C239.473 21.6071 238.867 15.0302 243.035 14.9076C247.492 14.7767 246.699 21.245 246.697 24.892V63.4724C246.697 67.433 247.649 75.8718 243.423 76.2356C240.284 76.5061 239.982 74.5407 239.711 71.7597C239.015 64.6276 239.474 34.1618 239.473 25.3028ZM238.356 0.425265C227.938 2.08903 220.592 6.56142 217.984 15.8881C215.834 23.5791 216.605 41.7392 216.604 50.7492C216.604 61.4759 215.738 74.8419 221.31 81.8732C232.354 95.812 262.729 94.5357 268.263 75.091C270.346 67.7679 269.604 49.3196 269.605 40.4882C269.606 29.3271 270.511 17.0055 265.045 9.49361C260.352 3.04562 250.023 -1.43793 238.356 0.425265ZM573.991 89.2387L596.866 89.2237L596.926 53.8681C598.244 55.215 601.314 69.76 601.754 71.5151C603.267 77.5475 604.545 83.3982 606.194 89.2397L629.6 89.2349C629.377 86.949 624.335 71.0721 623.24 67.3365C621.045 59.851 618.886 52.7494 616.602 45.224C614.944 39.759 616.01 39.557 617.748 34.4079C618.967 30.7972 620.077 27.403 621.333 23.6258C622.559 19.9436 623.696 16.5168 624.917 12.844C625.971 9.6725 627.895 4.93292 628.393 1.88933L607.03 1.8873C605.864 6.19832 598.229 32.6411 597.058 34.3331L596.9 2.07355L574.046 1.87386L573.991 89.2387ZM476.845 58.0726C476.591 52.8377 478.024 44.9989 478.609 39.6702C479.211 34.1879 480.604 27.4644 480.966 22.1874L484.392 58.071L476.845 58.0726ZM451.86 89.1765L475.548 89.2232L476.906 73.7571L485.188 73.5582L486.271 89.1063L509.561 89.2428L496.634 1.97358L463.517 1.8873L451.86 89.1765ZM139.732 58.0726C139.545 51.3099 142.827 31.2522 143.712 22.928C144.275 24.2919 147.348 54.91 147.283 58.0698L139.732 58.0726ZM114.799 89.1263L138.456 89.1689L139.853 73.5668L148.1 73.5488L149.22 89.206L172.565 89.2339L159.552 1.87944L126.506 1.88451L114.799 89.1263ZM358.657 58.0654C358.629 53.3485 361.768 25.6232 362.955 22.7273L366.318 58.0556L358.657 58.0654ZM333.768 89.2187L357.499 89.2209L358.8 73.832C360.588 73.3245 365.242 73.3478 367.091 73.7959L368.182 89.1058L391.481 89.2458L378.535 1.87665L345.443 1.88451L333.768 89.2187ZM176.567 89.0829L213.34 89.24L213.425 71.7947L199.546 71.7163L199.498 1.94211L176.605 1.90329L176.567 89.0829Z" fill="#0093DC"/>
<path fill-rule="evenodd" clip-rule="evenodd" d="M0 33.7289C2.73221 33.3711 42.3788 12.0848 44.4966 11.8518C46.9626 11.5811 82.5805 31.5226 89.1002 33.7906L89.2159 1.15881L0 1.23265V33.7289V33.7289Z" fill="#30B1EA"/>
</g>
<defs>
<clipPath id="clip0_55_20639">
<rect width="630" height="100" fill="white"/>
</clipPath>
</defs>
</svg>
